<svg width="460" height="260" viewBox="0 0 460 260" fill="none" xmlns="http://www.w3.org/2000/svg">
<g clip-path="url(#clip0_185_1390)">
<path d="M240 101C240 115.745 235.873 130.196 228.087 142.717C220.301 155.239 209.165 165.331 195.941 171.853C182.716 178.375 167.931 181.065 153.257 179.62C138.583 178.174 124.606 172.651 112.908 163.675C101.21 154.699 92.2574 142.628 87.0634 128.828C81.8695 115.028 80.6413 100.05 83.518 85.5879C86.3946 71.1261 93.2611 57.7581 103.341 46.9962C113.42 36.2343 126.311 28.5082 140.553 24.6919L161 101H240Z" fill="#E7544F"/>
<rect x="368.121" y="122.486" width="38.5794" height="123.813" fill="#E7544F"/>
<rect x="329.542" y="151.196" width="38.5794" height="123.813" fill="#E7544F"/>
<rect x="290.962" y="186.187" width="38.5794" height="123.813" fill="#E7544F"/>
</g>
<defs>
<clipPath id="clip0_185_1390">
<rect width="460" height="260" fill="white"/>
</clipPath>
</defs>
</svg>
