<svg width="460" height="260" viewBox="0 0 460 260" fill="none" xmlns="http://www.w3.org/2000/svg">
<g filter="url(#filter0_bd_185_1424)">
<mask id="path-1-inside-1_185_1424" fill="white">
<path fill-rule="evenodd" clip-rule="evenodd" d="M460 -1H0V259H460V-1ZM395.065 77.3494C398.51 78.8814 401.576 81.095 404.115 83.8157C406.661 86.524 408.638 89.6916 409.975 93.1159C411.318 96.559 412 100.222 412 103.902C412 107.582 411.318 111.246 409.975 114.689C408.635 118.121 406.652 121.295 404.097 124.008L404.07 124.036L315.467 218.616L315.439 218.645C312.898 221.373 309.827 223.591 306.376 225.126C302.91 226.668 299.156 227.476 295.34 227.476C291.524 227.476 287.77 226.668 284.304 225.126C280.848 223.589 277.773 221.366 275.229 218.634L275.213 218.616L231.988 172.368L176.098 232.14L176.08 232.16C173.537 234.892 170.463 237.114 167.007 238.651C163.541 240.192 159.787 241 155.971 241C152.155 241 148.401 240.192 144.935 238.651C141.491 237.119 138.425 234.906 135.887 232.186C133.34 229.477 131.362 226.309 130.025 222.884C128.682 219.441 128 215.778 128 212.098C128 208.418 128.682 204.754 130.025 201.311C131.365 197.878 133.349 194.703 135.905 191.99L135.93 191.964L211.863 110.908L211.889 110.881C214.431 108.153 217.502 105.933 220.954 104.398C224.42 102.857 228.174 102.049 231.99 102.049C235.807 102.049 239.56 102.857 243.027 104.398C246.482 105.935 249.557 108.158 252.101 110.891L252.117 110.908L295.344 157.158L363.902 83.8597L363.922 83.8385C366.464 81.1074 369.538 78.8857 372.993 77.3494C376.459 75.8079 380.213 75 384.029 75C387.845 75 391.599 75.8079 395.065 77.3494Z"/>
</mask>
<path fill-rule="evenodd" clip-rule="evenodd" d="M460 -1H0V259H460V-1ZM395.065 77.3494C398.51 78.8814 401.576 81.095 404.115 83.8157C406.661 86.524 408.638 89.6916 409.975 93.1159C411.318 96.559 412 100.222 412 103.902C412 107.582 411.318 111.246 409.975 114.689C408.635 118.121 406.652 121.295 404.097 124.008L404.07 124.036L315.467 218.616L315.439 218.645C312.898 221.373 309.827 223.591 306.376 225.126C302.91 226.668 299.156 227.476 295.34 227.476C291.524 227.476 287.77 226.668 284.304 225.126C280.848 223.589 277.773 221.366 275.229 218.634L275.213 218.616L231.988 172.368L176.098 232.14L176.08 232.16C173.537 234.892 170.463 237.114 167.007 238.651C163.541 240.192 159.787 241 155.971 241C152.155 241 148.401 240.192 144.935 238.651C141.491 237.119 138.425 234.906 135.887 232.186C133.34 229.477 131.362 226.309 130.025 222.884C128.682 219.441 128 215.778 128 212.098C128 208.418 128.682 204.754 130.025 201.311C131.365 197.878 133.349 194.703 135.905 191.99L135.93 191.964L211.863 110.908L211.889 110.881C214.431 108.153 217.502 105.933 220.954 104.398C224.42 102.857 228.174 102.049 231.99 102.049C235.807 102.049 239.56 102.857 243.027 104.398C246.482 105.935 249.557 108.158 252.101 110.891L252.117 110.908L295.344 157.158L363.902 83.8597L363.922 83.8385C366.464 81.1074 369.538 78.8857 372.993 77.3494C376.459 75.8079 380.213 75 384.029 75C387.845 75 391.599 75.8079 395.065 77.3494Z" fill="#F9E7E6" fill-opacity="0.18" shape-rendering="crispEdges"/>
<path d="M0 -1V-3H-2V-1H0ZM460 -1H462V-3H460V-1ZM0 259H-2V261H0V259ZM460 259V261H462V259H460ZM404.115 83.8157L402.652 85.1802L402.658 85.1857L404.115 83.8157ZM395.065 77.3494L395.878 75.5219L395.878 75.5219L395.065 77.3494ZM409.975 93.1159L408.111 93.843L408.111 93.843L409.975 93.1159ZM409.975 114.689L408.111 113.962L408.111 113.962L409.975 114.689ZM404.097 124.008L405.552 125.38L405.553 125.379L404.097 124.008ZM404.07 124.036L402.616 122.664L402.611 122.669L404.07 124.036ZM315.467 218.616L314.007 217.249L314.002 217.254L315.467 218.616ZM315.439 218.645L316.903 220.009L316.904 220.007L315.439 218.645ZM306.376 225.126L307.189 226.954L307.189 226.954L306.376 225.126ZM284.304 225.126L283.491 226.954L283.491 226.954L284.304 225.126ZM275.229 218.634L273.765 219.996L273.765 219.996L275.229 218.634ZM275.213 218.616L276.677 217.254L276.674 217.25L275.213 218.616ZM231.988 172.368L233.449 171.003L231.988 169.44L230.527 171.002L231.988 172.368ZM176.098 232.14L174.637 230.774L174.634 230.778L176.098 232.14ZM176.08 232.16L177.544 233.522L177.544 233.522L176.08 232.16ZM167.007 238.651L167.82 240.478L167.82 240.478L167.007 238.651ZM144.935 238.651L144.122 240.478L144.122 240.478L144.935 238.651ZM135.887 232.186L137.349 230.821L137.344 230.816L135.887 232.186ZM130.025 222.884L131.889 222.157L131.889 222.157L130.025 222.884ZM130.025 201.311L131.889 202.038L131.889 202.038L130.025 201.311ZM135.905 191.99L134.45 190.617L134.449 190.618L135.905 191.99ZM135.93 191.964L137.385 193.336L137.389 193.331L135.93 191.964ZM211.863 110.908L213.323 112.276L213.328 112.271L211.863 110.908ZM211.889 110.881L210.426 109.518L210.425 109.518L211.889 110.881ZM220.954 104.398L220.142 102.571L220.142 102.571L220.954 104.398ZM243.027 104.398L243.839 102.571L243.839 102.571L243.027 104.398ZM252.101 110.891L250.637 112.253L250.637 112.254L252.101 110.891ZM252.117 110.908L250.654 112.272L250.656 112.274L252.117 110.908ZM295.344 157.158L293.883 158.524L295.343 160.086L296.804 158.524L295.344 157.158ZM363.902 83.8597L365.363 85.2259L365.367 85.2214L363.902 83.8597ZM363.922 83.8385L362.458 82.4757L362.457 82.4768L363.922 83.8385ZM372.993 77.3494L373.805 79.1768L373.805 79.1768L372.993 77.3494ZM0 1H460V-3H0V1ZM2 259V-1H-2V259H2ZM460 257H0V261H460V257ZM458 -1V259H462V-1H458ZM405.577 82.4513C402.86 79.5391 399.574 77.1658 395.878 75.5219L394.252 79.1768C397.446 80.597 400.292 82.651 402.652 85.1802L405.577 82.4513ZM411.838 92.3887C410.41 88.7317 408.297 85.3447 405.572 82.4457L402.658 85.1857C405.025 87.7033 406.866 90.6515 408.111 93.843L411.838 92.3887ZM414 103.902C414 99.9759 413.273 96.0657 411.838 92.3887L408.111 93.843C409.364 97.0522 410 100.469 410 103.902H414ZM411.838 115.416C413.273 111.739 414 107.829 414 103.902H410C410 107.336 409.364 110.753 408.111 113.962L411.838 115.416ZM405.553 125.379C408.288 122.476 410.407 119.081 411.838 115.416L408.111 113.962C406.863 117.161 405.016 120.115 402.641 122.636L405.553 125.379ZM405.525 125.409L405.552 125.38L402.643 122.635L402.616 122.664L405.525 125.409ZM316.926 219.983L405.53 125.404L402.611 122.669L314.007 217.249L316.926 219.983ZM316.904 220.007L316.931 219.978L314.002 217.254L313.975 217.283L316.904 220.007ZM307.189 226.954C310.891 225.307 314.182 222.928 316.903 220.009L313.976 217.282C311.614 219.817 308.762 221.876 305.563 223.299L307.189 226.954ZM295.34 229.476C299.439 229.476 303.469 228.608 307.189 226.954L305.563 223.299C302.35 224.728 298.873 225.476 295.34 225.476V229.476ZM283.491 226.954C287.21 228.608 291.241 229.476 295.34 229.476V225.476C291.807 225.476 288.329 224.728 285.116 223.299L283.491 226.954ZM273.765 219.996C276.488 222.921 279.783 225.305 283.491 226.954L285.116 223.299C281.913 221.874 279.058 219.811 276.693 217.271L273.765 219.996ZM273.748 219.978L273.765 219.996L276.694 217.272L276.677 217.254L273.748 219.978ZM230.527 173.734L273.752 219.982L276.674 217.25L233.449 171.003L230.527 173.734ZM177.559 233.506L233.449 173.734L230.527 171.002L174.637 230.774L177.559 233.506ZM177.544 233.522L177.562 233.503L174.634 230.778L174.616 230.797L177.544 233.522ZM167.82 240.478C171.528 238.829 174.822 236.447 177.544 233.522L174.616 230.797C172.252 233.337 169.398 235.399 166.195 236.823L167.82 240.478ZM155.971 243C160.07 243 164.101 242.132 167.82 240.478L166.195 236.823C162.981 238.252 159.504 239 155.971 239V243ZM144.122 240.478C147.842 242.132 151.872 243 155.971 243V239C152.438 239 148.961 238.252 145.748 236.823L144.122 240.478ZM134.425 233.55C137.142 236.462 140.427 238.835 144.122 240.478L145.748 236.823C142.555 235.403 139.709 233.35 137.349 230.821L134.425 233.55ZM128.162 223.611C129.59 227.269 131.703 230.657 134.43 233.556L137.344 230.816C134.976 228.298 133.134 225.349 131.889 222.157L128.162 223.611ZM126 212.098C126 216.024 126.727 219.934 128.162 223.611L131.889 222.157C130.636 218.948 130 215.531 130 212.098H126ZM128.162 200.584C126.727 204.261 126 208.171 126 212.098H130C130 208.664 130.636 205.247 131.889 202.038L128.162 200.584ZM134.449 190.618C131.713 193.522 129.593 196.918 128.162 200.584L131.889 202.038C133.137 198.839 134.985 195.883 137.361 193.361L134.449 190.618ZM134.475 190.591L134.45 190.617L137.36 193.362L137.385 193.336L134.475 190.591ZM210.404 109.541L134.47 190.596L137.389 193.331L213.323 112.276L210.404 109.541ZM210.425 109.518L210.399 109.546L213.328 112.271L213.353 112.244L210.425 109.518ZM220.142 102.571C216.438 104.218 213.146 106.597 210.426 109.518L213.352 112.244C215.715 109.708 218.567 107.649 221.767 106.226L220.142 102.571ZM231.99 100.049C227.891 100.049 223.861 100.917 220.142 102.571L221.767 106.226C224.98 104.797 228.457 104.049 231.99 104.049V100.049ZM243.839 102.571C240.12 100.917 236.089 100.049 231.99 100.049V104.049C235.524 104.049 239.001 104.797 242.214 106.226L243.839 102.571ZM253.565 109.528C250.842 106.603 247.547 104.22 243.839 102.571L242.214 106.226C245.418 107.65 248.272 109.713 250.637 112.253L253.565 109.528ZM253.581 109.545L253.564 109.528L250.637 112.254L250.654 112.272L253.581 109.545ZM296.805 155.792L253.578 109.543L250.656 112.274L293.883 158.524L296.805 155.792ZM362.441 82.4935L293.883 155.792L296.804 158.524L365.363 85.2259L362.441 82.4935ZM362.457 82.4768L362.437 82.4979L365.367 85.2214L365.386 85.2003L362.457 82.4768ZM372.18 75.5219C368.473 77.1704 365.18 79.5523 362.458 82.4757L365.385 85.2014C367.749 82.6625 370.603 80.601 373.805 79.1768L372.18 75.5219ZM384.029 73C379.93 73 375.899 73.8679 372.18 75.5219L373.805 79.1768C377.018 77.7479 380.496 77 384.029 77V73ZM395.878 75.5219C392.158 73.8679 388.128 73 384.029 73V77C387.562 77 391.039 77.7479 394.252 79.1768L395.878 75.5219Z" fill="black" mask="url(#path-1-inside-1_185_1424)"/>
</g>
<defs>
<filter id="filter0_bd_185_1424" x="-30" y="-31" width="520" height="326" filterUnits="userSpaceOnUse" color-interpolation-filters="sRGB">
<feFlood flood-opacity="0" result="BackgroundImageFix"/>
<feGaussianBlur in="BackgroundImageFix" stdDeviation="15"/>
<feComposite in2="SourceAlpha" operator="in" result="effect1_backgroundBlur_185_1424"/>
<feColorMatrix in="SourceAlpha" type="matrix" values="0 0 0 0 0 0 0 0 0 0 0 0 0 0 0 0 0 0 127 0" result="hardAlpha"/>
<feOffset dx="8" dy="16"/>
<feGaussianBlur stdDeviation="10"/>
<feComposite in2="hardAlpha" operator="out"/>
<feColorMatrix type="matrix" values="0 0 0 0 0.831373 0 0 0 0 0.364706 0 0 0 0 0.34902 0 0 0 0.15 0"/>
<feBlend mode="normal" in2="effect1_backgroundBlur_185_1424" result="effect2_dropShadow_185_1424"/>
<feBlend mode="normal" in="SourceGraphic" in2="effect2_dropShadow_185_1424" result="shape"/>
</filter>
</defs>
</svg>
