<svg width="12" height="12" viewBox="0 0 12 12" fill="none" xmlns="http://www.w3.org/2000/svg">
<path d="M10.4674 4.37732L10.4674 4.37733C10.5452 4.43406 10.6039 4.50295 10.6427 4.5764L11.0849 4.34314L10.6427 4.5764C10.6812 4.64957 10.7 4.72692 10.6999 4.80327V4.80351V10.1361C10.6999 10.2694 10.6421 10.4081 10.5209 10.5183C10.3981 10.6299 10.2222 10.6998 10.0299 10.6998H8.46993C8.27767 10.6998 8.10175 10.6299 7.97896 10.5183C7.85775 10.4081 7.79993 10.2694 7.79993 10.1361V7.29963C7.79993 7.05678 7.69339 6.83473 7.52204 6.67895L7.1857 7.04891L7.52204 6.67895C7.35228 6.52462 7.13141 6.44507 6.90993 6.44507H5.08993C4.86844 6.44507 4.64757 6.52462 4.47781 6.67895L4.81416 7.04891L4.47781 6.67895C4.30647 6.83473 4.19993 7.05678 4.19993 7.29963V10.1361C4.19993 10.2694 4.14211 10.4081 4.0209 10.5183L4.35724 10.8883L4.0209 10.5183C3.8981 10.6299 3.72218 10.6998 3.52993 10.6998H1.96993C1.77767 10.6998 1.60175 10.6299 1.47896 10.5183L1.14261 10.8883L1.47896 10.5183C1.35775 10.4081 1.29993 10.2694 1.29993 10.1361V4.80351C1.29993 4.65214 1.37539 4.49239 1.53245 4.37777C1.53246 4.37776 1.53248 4.37775 1.53249 4.37774L5.56241 1.43778C5.68128 1.35107 5.83555 1.2998 5.99993 1.2998C6.1643 1.2998 6.31857 1.35107 6.43744 1.43778L10.4674 4.37732Z" stroke="#9C9C9C"/>
</svg>
