<svg width="76" height="80" viewBox="0 0 76 80" fill="none" xmlns="http://www.w3.org/2000/svg">
<path d="M27.0782 4.4719C30.8561 2.59472 35.0764 1.32565 39.0782 0C46.5782 2.98137 63.8219 9.56885 75.3098 13.6883C71.3219 15.123 66.0782 16.8944 62.0782 18.882C58.0782 16.8944 46.5782 12.4224 39.0782 8.94412C38.5782 10.9317 38.5782 12.4224 38.5381 13.6883C35.313 13.6883 32.0656 13.5713 28.8735 14.1181C35.7455 18.7808 44.9073 20.9457 52.587 23.9491C48.4946 25.8739 43.5782 27.8261 37.9086 30.3106C31.5782 27.1383 11.0999 18.071 0.922221 13.5319C5.93907 11.3276 10.91 9.37935 16.0782 7.45327L26.8925 8.37083L27.0782 4.4719Z" fill="white"/>
<path d="M0 13.9457C12.0782 18.9554 24.7479 25.0991 37.5782 31.3044C37.7962 47.547 37.5782 63.762 37.5782 80C33.3447 77.8485 25.779 73.3953 23.745 72.1608C23.4454 62.1946 23.5121 52.1923 23.0782 42.2361C19.0782 40.7454 17.0782 39.2547 12.4727 37.4604C12.2687 46.9103 12.4683 56.299 12.7535 65.7492C9.24043 63.6608 6.02773 61.3295 2.76436 58.8952C2.57825 55.1554 0.3413 26.8084 0 13.9457Z" fill="white"/>
<path d="M62.5782 19.3789C66.5782 17.8882 72.0782 15.9007 75.5782 14.41C74.4942 30.2223 73.8701 53.1678 73.8701 57.3045C70.3712 60.1289 68.2732 61.0428 64.5782 63.6026C64.5782 59.1306 64.1671 43.7268 64.1671 38.7116C62.0782 41.7392 60.0782 43.7268 58.9059 44.9674C57.5782 44.7206 56.5782 44.2237 52.3869 42.2361C52.3869 48.6958 52.3869 66.8656 52.3869 72.4067C48.0242 75.0256 43.7032 77.7369 39.138 80C38.0849 63.8129 38.5518 47.5163 38.5782 31.3044C40.5782 30.3106 51.5782 25.3417 53.0573 24.5806C55.0782 26.3355 58.5782 29.3168 59.2426 29.9534C60.5782 27.8261 61.0782 23.851 62.5782 19.3789Z" fill="white"/>
</svg>
