<svg width="78" height="80" viewBox="0 0 78 80" fill="none" xmlns="http://www.w3.org/2000/svg">
<path d="M38.9222 80C38.8981 80 38.866 80 38.8418 80C38.8016 79.96 38.7775 79.92 38.7454 79.872C38.6569 79.672 38.665 79.456 38.665 79.24C38.665 63.312 38.665 47.376 38.665 31.448C38.665 31.272 38.665 31.104 38.6891 30.928C38.7534 30.704 38.9303 30.584 39.1312 30.496C42.1217 29.128 45.1121 27.752 48.1025 26.392C49.7424 25.648 51.3823 24.888 53.0303 24.144C53.1911 24.072 53.3518 24.016 53.5207 23.976C53.8181 23.952 54.011 24.136 54.22 24.312C56.0288 25.872 57.8536 27.408 59.6623 28.968C59.7909 29.08 59.9115 29.216 60.1526 29.264C62.0418 25.688 63.8826 22.08 65.7798 18.496C66.1657 18.096 66.6962 17.952 67.1786 17.736C70.177 16.392 73.1755 15.04 76.174 13.68C76.5116 13.528 76.8572 13.376 77.1949 13.216C77.3958 13.12 77.6049 13.024 77.846 13.104C78.0229 13.256 78.0068 13.464 77.9907 13.664C77.8862 14.832 77.838 16 77.7495 17.168C77.645 18.536 77.5727 19.896 77.4682 21.264C77.3958 22.232 77.3396 23.2 77.2833 24.168C77.219 25.216 77.1627 26.264 77.0663 27.312C77.0261 27.792 77.01 28.264 76.9778 28.744C76.8814 30.28 76.7608 31.816 76.6724 33.36C76.608 34.384 76.5437 35.4 76.4794 36.424C76.391 37.84 76.3106 39.264 76.19 40.68C76.1498 41.184 76.1257 41.688 76.1016 42.192C76.0051 44.008 75.8444 45.824 75.7559 47.648C75.6916 48.832 75.6112 50.008 75.5228 51.192C75.4183 52.56 75.3781 53.928 75.2254 55.288C75.1932 55.568 75.2173 55.848 75.2013 56.128C75.1771 56.56 75.0164 56.912 74.6305 57.168C73.2961 58.04 72.0018 58.96 70.6915 59.864C68.714 61.232 66.7203 62.584 64.7508 63.952C64.5338 64.104 64.3328 64.288 64.0354 64.28C63.8183 64.24 63.7701 64.096 63.7701 63.896C63.7781 63.032 63.8424 62.168 63.9148 61.312C63.963 60.832 63.9711 60.352 63.9952 59.88C64.0273 59.096 64.0675 58.312 64.1158 57.528C64.2042 55.976 64.2283 54.416 64.4052 52.872C64.4212 52.736 64.4132 52.608 64.4212 52.472C64.4775 50.584 64.574 48.704 64.7267 46.816C64.783 46.112 64.7669 45.408 64.8071 44.704C64.8714 43.512 64.9277 42.312 65.0081 41.12C65.0885 39.872 65.0885 38.624 65.2251 37.376C65.2412 37.232 65.2332 37.088 65.2171 36.904C64.8473 37.224 64.6785 37.648 64.4293 38.008C63.7862 38.936 63.1752 39.896 62.5482 40.832C61.8247 41.92 61.1093 43.008 60.3858 44.096C60.2893 44.24 60.1848 44.384 60.0642 44.504C59.8954 44.672 59.6944 44.712 59.4774 44.608C58.6333 44.176 57.7893 43.744 56.9452 43.312C55.8358 42.744 54.7506 42.144 53.6332 41.6C53.5528 41.56 53.4724 41.504 53.3599 41.544C53.2473 41.64 53.2714 41.784 53.2795 41.912C53.3358 44.136 53.1911 46.36 53.1991 48.584C53.1991 51.12 53.2071 53.648 53.1991 56.184C53.1991 56.816 53.1348 57.456 53.1187 58.088C53.1187 58.888 53.1268 59.688 53.1268 60.488C53.1268 64.136 52.9901 67.792 53.0464 71.44C53.0544 71.88 52.8695 72.152 52.4917 72.368C49.1074 74.312 45.7391 76.28 42.3548 78.232C41.5107 78.72 40.6586 79.2 39.8226 79.704C39.5171 79.856 39.2116 79.888 38.9222 80Z" fill="#A52124"/>
<path d="M39.7261 0C40.2004 0.304 40.7551 0.416 41.2776 0.6C43.2712 1.296 45.2729 1.968 47.2745 2.648C50.6669 3.8 54.0512 4.952 57.4436 6.112C59.5899 6.848 61.7363 7.592 63.8907 8.328C67.0178 9.4 70.1368 10.456 73.2639 11.52C74.6787 12 76.0936 12.488 77.5164 12.976C77.6049 13.008 77.7013 13.024 77.7496 13.12C76.7527 13.648 75.6997 14.08 74.6707 14.544C71.8652 15.816 69.0436 17.072 66.23 18.336C66.0933 18.4 65.9647 18.456 65.8763 18.584C64.9277 18.288 64.0193 17.896 63.0949 17.56C61.1736 16.856 59.2523 16.152 57.331 15.456C54.9516 14.6 52.5801 13.728 50.2167 12.848C48.6652 12.264 47.1057 11.696 45.5542 11.136C43.6973 10.464 41.8323 9.784 39.9753 9.112C39.7743 9.04 39.5814 8.952 39.3322 8.952C39.1875 9.36 39.3483 9.752 39.3885 10.136C39.4769 11.088 39.5653 12.04 39.6618 12.992C39.702 13.408 39.5332 13.592 39.1071 13.6C38.1585 13.608 37.21 13.72 36.2614 13.688C34.6134 13.64 32.9655 13.744 31.3256 13.792C30.1278 13.824 28.922 13.8 27.7403 13.856C28.9943 14.368 30.2644 14.848 31.5426 15.328C32.8288 15.816 34.1231 16.288 35.4012 16.8C37.0974 17.488 38.8177 18.12 40.53 18.776C42.3467 19.48 44.1716 20.184 45.9883 20.88C47.0655 21.288 48.1266 21.728 49.2038 22.136C50.5383 22.648 51.8647 23.176 53.2152 23.664C53.4081 23.736 53.6091 23.792 53.593 24.056C51.2537 25.128 48.9144 26.2 46.5751 27.272C44.0992 28.408 41.6233 29.536 39.1473 30.664C39.0669 30.704 38.9865 30.76 38.9061 30.808C38.6811 30.864 38.4801 30.76 38.2952 30.672C36.6472 29.904 34.9832 29.176 33.3272 28.416C30.0554 26.92 26.7756 25.44 23.5038 23.952C21.462 23.024 19.4121 22.096 17.3702 21.16C15.1194 20.136 12.8685 19.112 10.6096 18.088C8.27033 17.024 5.93105 15.968 3.59176 14.904C2.55476 14.432 1.50971 13.992 0.488789 13.48C0.336052 13.408 0.110966 13.384 0.135083 13.12C0.657604 12.816 1.25247 12.688 1.82323 12.504C5.43264 11.296 9.05814 10.104 12.6676 8.888C13.6644 8.552 14.6531 8.344 15.7223 8.352C19.6613 8.384 23.5923 8.352 27.5313 8.344C27.676 8.344 27.8207 8.344 28.0377 8.344C28.1422 6.792 28.2387 5.272 28.3351 3.752C28.9782 3.448 29.6294 3.288 30.2564 3.072C31.9767 2.488 33.705 1.928 35.4334 1.36C36.6553 0.96 37.8691 0.56 39.091 0.16C39.1955 0.128 39.292 0.096 39.3563 0C39.4608 0 39.5975 0 39.7261 0Z" fill="#E2E32E"/>
<path d="M0.110966 13.12C1.59814 13.808 3.08532 14.504 4.58053 15.184C8.95363 17.176 13.3348 19.16 17.7159 21.152C24.6614 24.304 31.5989 27.464 38.5444 30.616C38.665 30.672 38.7695 30.744 38.8901 30.816C38.882 31.216 38.874 31.616 38.874 32.016C38.874 47.856 38.874 63.696 38.874 79.528C38.874 79.664 38.8579 79.792 38.8499 79.928C38.0299 79.568 37.2984 79.056 36.5267 78.608C32.7163 76.368 28.9139 74.12 25.1116 71.872C25.0553 71.84 24.999 71.8 24.9106 71.744C24.8704 70.464 24.8222 69.176 24.782 67.888C24.6936 64.856 24.6051 61.816 24.5087 58.784C24.5006 58.648 24.5891 58.456 24.3801 58.368C24.2434 58.192 24.2836 57.984 24.2836 57.792C24.3077 56.368 24.2112 54.944 24.1791 53.52C24.1469 51.808 24.0826 50.088 24.0264 48.376C23.962 46.592 23.8897 44.816 23.8656 43.032C23.8575 42.632 23.7932 42.24 23.7932 41.84C23.7932 41.576 23.6405 41.44 23.4234 41.328C21.5424 40.36 19.6452 39.44 17.7641 38.48C16.7271 37.952 15.6901 37.432 14.6531 36.904C14.002 36.576 13.375 36.192 12.7077 35.928C12.5309 36.056 12.5791 36.216 12.5791 36.352C12.5952 38.192 12.7158 40.024 12.756 41.856C12.7881 43.16 12.8605 44.464 12.9087 45.76C12.965 47.304 13.0132 48.848 13.0695 50.384C13.1258 51.768 13.174 53.152 13.2303 54.528C13.2865 56.08 13.3348 57.64 13.3991 59.192C13.4473 60.464 13.5277 61.744 13.5518 63.016C13.5599 63.504 13.6483 63.992 13.6242 64.488C13.6161 64.68 13.584 64.856 13.4473 65C12.1611 64.24 10.8749 63.488 9.58869 62.728C7.45038 61.464 5.3201 60.192 3.17374 58.912C3.0612 57.312 2.94866 55.72 2.84415 54.128C2.64318 51.192 2.44221 48.256 2.24124 45.32C2.04027 42.368 1.8393 39.416 1.63834 36.464C1.46952 33.968 1.29267 31.464 1.12385 28.968C0.947 26.392 0.770147 23.808 0.593293 21.232C0.41644 18.68 0.231548 16.128 0.0627335 13.576C0.0386171 13.44 -0.0900034 13.248 0.110966 13.12Z" fill="#274C9C"/>
<path d="M53.5689 24.064C53.384 23.784 53.0544 23.808 52.7891 23.704C51.8004 23.296 50.8035 22.928 49.7987 22.544C48.2472 21.952 46.6957 21.376 45.1523 20.776C43.5686 20.168 42.0011 19.536 40.4255 18.928C39.3402 18.512 38.247 18.112 37.1617 17.696C35.5218 17.064 33.8819 16.424 32.234 15.792C30.6905 15.2 29.1471 14.608 27.5956 14.016C27.4589 13.968 27.3223 13.92 27.2338 13.752C27.4348 13.728 27.6117 13.688 27.7885 13.688C29.2355 13.696 30.6744 13.64 32.1214 13.616C33.9543 13.584 35.7871 13.512 37.6199 13.504C38.2068 13.504 38.8177 13.488 39.4849 13.416C39.3322 11.84 39.1875 10.288 39.0348 8.664C39.6377 8.8 40.12 9.008 40.6184 9.184C42.1136 9.728 43.6008 10.288 45.088 10.832C47.5961 11.744 50.1122 12.632 52.6123 13.56C54.3245 14.192 56.0448 14.816 57.7651 15.432C59.7748 16.152 61.7684 16.912 63.7701 17.656C64.3489 17.872 64.9197 18.088 65.4984 18.304C65.6512 18.36 65.82 18.392 65.8441 18.592C65.4904 19.304 65.1367 20.024 64.7749 20.736C63.3039 23.56 61.8328 26.384 60.3617 29.216C60.3054 29.328 60.2732 29.472 60.0803 29.552C59.6784 29.216 59.2603 28.872 58.8504 28.52C57.2105 27.112 55.5625 25.704 53.9226 24.296C53.8261 24.192 53.7297 24.08 53.5689 24.064Z" fill="#E4C200"/>
<path d="M64.0274 64.168C63.8344 64.368 63.6897 64.192 63.537 64.104C60.5385 62.4 57.532 60.696 54.5335 58.992C54.003 58.688 53.4644 58.392 52.9338 58.096C53.0383 54.824 52.974 51.544 52.9981 48.272C53.0142 46.024 53.1187 43.768 53.0785 41.52C53.0785 41.416 53.0624 41.304 53.183 41.16C55.3535 42.28 57.54 43.408 59.815 44.584C61.6238 41.856 63.4486 39.112 65.3377 36.272C65.41 36.808 65.4181 37.224 65.3618 37.624C65.2573 38.352 65.2814 39.08 65.2332 39.816C65.1126 41.536 65.0563 43.264 64.9759 44.992C64.9036 46.52 64.8232 48.048 64.7106 49.568C64.5981 51.104 64.6463 52.648 64.4293 54.184C64.3489 54.752 64.4293 55.32 64.3489 55.896C64.2685 56.528 64.2846 57.168 64.2524 57.808C64.172 59.504 64.0917 61.2 63.9389 62.896C63.9068 63.28 63.9068 63.664 63.8907 64.048C63.8907 64.136 63.963 64.152 64.0274 64.168Z" fill="#711F21"/>
<path d="M13.4393 65.016C13.4071 63.128 13.3267 61.248 13.2142 59.36C13.166 58.552 13.1901 57.736 13.1418 56.928C13.0615 55.72 13.0936 54.504 13.0373 53.296C12.965 51.832 12.9248 50.376 12.8685 48.912C12.8122 47.44 12.7721 45.96 12.7077 44.488C12.6193 42.336 12.547 40.184 12.4585 38.032C12.4264 37.24 12.4585 36.448 12.354 35.648C12.6675 35.584 12.8685 35.768 13.0856 35.88C15.0711 36.944 17.105 37.92 19.1147 38.936C20.6259 39.696 22.1372 40.456 23.6566 41.208C23.8817 41.32 23.9701 41.488 23.9942 41.744C24.0665 42.832 24.0344 43.928 24.0826 45.016C24.155 46.744 24.1871 48.472 24.2434 50.2C24.2997 51.952 24.3559 53.712 24.4042 55.464C24.4283 56.272 24.4604 57.088 24.4685 57.896C24.4685 58.056 24.4846 58.216 24.3881 58.36C21.1083 60.368 17.8284 62.376 14.5406 64.376C14.1708 64.608 13.8412 64.872 13.4393 65.016Z" fill="#213162"/>
</svg>
