<svg width="81" height="81" viewBox="0 0 81 81" fill="none" xmlns="http://www.w3.org/2000/svg">
<path d="M58.1667 65.4781V11.75C58.1639 10.7563 57.7678 9.80417 57.0652 9.10154C56.3626 8.3989 55.4104 8.00289 54.4167 8H11.9167C10.9231 8.00289 9.97092 8.3989 9.26829 9.10154C8.56565 9.80417 8.16963 10.7563 8.16675 11.75V66.75C8.17169 68.4061 8.83176 69.9929 10.0028 71.164C11.1738 72.335 12.7607 72.9951 14.4167 73H65.6667" stroke="#C8C8C8" stroke-width="2" stroke-linejoin="round"/>
<path d="M65.6667 73C63.6776 73 61.77 72.2098 60.3634 70.8033C58.9569 69.3968 58.1667 67.4891 58.1667 65.5V20.5H69.4167C70.4113 20.5 71.3651 20.8951 72.0684 21.5983C72.7717 22.3016 73.1667 23.2554 73.1667 24.25V65.5C73.1667 67.4891 72.3766 69.3968 70.97 70.8033C69.5635 72.2098 67.6559 73 65.6667 73Z" stroke="#C8C8C8" stroke-width="2" stroke-linejoin="round"/>
<path d="M38.1667 20.5H48.1667M38.1667 30.5H48.1667M18.1667 40.5H48.1667M18.1667 50.5H48.1667M18.1667 60.5H48.1667" stroke="#C8C8C8" stroke-width="2" stroke-linecap="round" stroke-linejoin="round"/>
<path d="M28.1667 33H18.1667C17.5037 33 16.8678 32.7366 16.399 32.2678C15.9301 31.7989 15.6667 31.163 15.6667 30.5V20.5C15.6667 19.837 15.9301 19.2011 16.399 18.7322C16.8678 18.2634 17.5037 18 18.1667 18H28.1667C28.8298 18 29.4657 18.2634 29.9345 18.7322C30.4034 19.2011 30.6667 19.837 30.6667 20.5V30.5C30.6667 31.163 30.4034 31.7989 29.9345 32.2678C29.4657 32.7366 28.8298 33 28.1667 33Z" stroke="#C8C8C8" stroke-width="2"/>
</svg>
