<svg width="90" height="90" viewBox="0 0 90 90" fill="none" xmlns="http://www.w3.org/2000/svg">
<circle cx="45" cy="45" r="45" fill="#F8F8F8"/>
<path d="M45.0004 23.3999C33.0707 23.3999 23.4004 33.0702 23.4004 44.9999C23.4004 56.9296 33.0707 66.5999 45.0004 66.5999C56.9301 66.5999 66.6004 56.9296 66.6004 44.9999C66.6004 33.0702 56.9301 23.3999 45.0004 23.3999Z" stroke="#9C9C9C" stroke-width="3" stroke-linecap="round" stroke-linejoin="round"/>
<path d="M28.3066 58.7069C28.3066 58.7069 33.1213 52.5595 45.0013 52.5595C56.8813 52.5595 61.6981 58.7069 61.6981 58.7069M45.0013 44.9995C46.7199 44.9995 48.3681 44.3168 49.5833 43.1016C50.7986 41.8864 51.4813 40.2382 51.4813 38.5196C51.4813 36.8009 50.7986 35.1527 49.5833 33.9375C48.3681 32.7223 46.7199 32.0396 45.0013 32.0396C43.2827 32.0396 41.6345 32.7223 40.4192 33.9375C39.204 35.1527 38.5213 36.8009 38.5213 38.5196C38.5213 40.2382 39.204 41.8864 40.4192 43.1016C41.6345 44.3168 43.2827 44.9995 45.0013 44.9995V44.9995Z" stroke="#9C9C9C" stroke-width="3" stroke-linecap="round" stroke-linejoin="round"/>
</svg>
