<svg width="14" height="13" viewBox="0 0 14 13" fill="none" xmlns="http://www.w3.org/2000/svg">
<path d="M1 3.26947C1 8.36749 5.13276 12.5002 10.2308 12.5002H11.6154C12.3801 12.5002 13 11.8803 13 11.1156V10.2716C13 9.95387 12.7838 9.67696 12.4756 9.59991L9.75364 8.91943C9.48341 8.85187 9.19901 8.95284 9.03189 9.17568L8.43483 9.97175C8.26155 10.2028 7.96185 10.305 7.69067 10.2056C5.65563 9.46015 4.0401 7.84462 3.29462 5.80957C3.19529 5.53839 3.29745 5.23869 3.52849 5.06541L4.32457 4.46836C4.5474 4.30123 4.64838 4.01683 4.58082 3.7466L3.90033 1.02464C3.82328 0.71645 3.54637 0.500244 3.22869 0.500244H2.38462C1.61991 0.500244 1 1.12016 1 1.88486V3.26947Z" stroke="white" stroke-linecap="round" stroke-linejoin="round"/>
</svg>
