<svg width="130" height="130" viewBox="0 0 130 130" fill="none" xmlns="http://www.w3.org/2000/svg">
<path fill-rule="evenodd" clip-rule="evenodd" d="M26.102 81.5855C25.8065 80.4515 25.7603 76.6676 25.7603 53.6172V26.9605L12.1175 27.0376C9.9496 27.109 9.71962 27.1617 8.92703 27.7669C8.45713 28.1255 7.88252 28.8378 7.65006 29.3498C7.24347 30.2453 7.22719 31.5566 7.22244 64.0381C7.21837 91.8877 7.27084 97.9236 7.52298 98.5269C7.93521 99.5136 9.27369 100.648 10.3752 100.945C11.1178 101.145 11.7693 101.089 14.053 100.628C21.7881 99.067 26.9193 98.4412 34.5795 98.1247C40.4113 97.8838 49.4973 98.621 54.1122 99.7092C56.1546 100.191 56.213 100.14 54.8978 99.017C48.4628 93.5243 41.5825 90.8811 33.675 89.0276C30.1374 88.1981 27.0287 85.1433 26.102 81.5855ZM104.113 81.5855C104.408 80.4515 104.454 76.6676 104.454 53.6172V26.9605L118.097 27.0376C120.265 27.109 120.495 27.1617 121.288 27.7669C121.758 28.1255 122.332 28.8378 122.565 29.3498C122.971 30.2453 122.988 31.5566 122.992 64.0381C122.996 91.8877 122.944 97.9236 122.692 98.5269C122.28 99.5136 120.941 100.648 119.84 100.945C119.097 101.145 118.446 101.089 116.162 100.628C108.427 99.067 103.296 98.4412 95.6353 98.1247C89.8036 97.8838 80.7175 98.621 76.1026 99.7092C74.0602 100.191 74.0018 100.14 75.317 99.017C81.752 93.5243 88.6323 90.8811 96.5398 89.0276C100.077 88.1981 103.186 85.1433 104.113 81.5855Z" fill="#207EED"/>
<g filter="url(#filter0_bii_107_302)">
<path fill-rule="evenodd" clip-rule="evenodd" d="M24.0852 24.1256C22.954 24.5272 21.7568 25.6997 21.4707 26.6863C21.3196 27.2079 21.2652 38.0524 21.3091 58.9874L21.375 90.5033L21.9079 91.2777C22.9821 92.8391 23.6692 93.0889 27.4101 93.2783C37.0324 93.7654 43.6172 95.2852 50.4331 98.592C54.7035 100.664 57.7405 102.738 60.9946 105.807L61.9446 106.702L61.9347 74.4332C61.9269 48.8546 61.8659 41.9993 61.6399 41.3697C60.9387 39.4166 57.0755 34.9412 53.9326 32.4406C47.8851 27.6295 39.2066 24.704 28.9748 24.0273C24.8828 23.7566 25.1394 23.7514 24.0852 24.1256ZM100.616 24.05C90.9921 24.696 82.1115 27.7498 76.2152 32.4406C73.0722 34.9412 69.2091 39.4166 68.5079 41.3697C68.2819 41.9993 68.2209 48.8546 68.2131 74.4332L68.2032 106.702L69.1532 105.807C72.4073 102.738 75.4443 100.664 79.7147 98.592C86.5306 95.2852 93.1154 93.7654 102.738 93.2783C106.479 93.0889 107.166 92.8391 108.24 91.2777L108.773 90.5033L108.839 58.9874C108.884 37.4019 108.831 27.2164 108.67 26.6614C108.377 25.6536 106.968 24.3527 105.827 24.0373C104.888 23.7775 104.666 23.7782 100.616 24.05Z" fill="#3680FF" fill-opacity="0.14"/>
</g>
<defs>
<filter id="filter0_bii_107_302" x="-14.7056" y="-12.1667" width="159.56" height="154.869" filterUnits="userSpaceOnUse" color-interpolation-filters="sRGB">
<feFlood flood-opacity="0" result="BackgroundImageFix"/>
<feGaussianBlur in="BackgroundImageFix" stdDeviation="18"/>
<feComposite in2="SourceAlpha" operator="in" result="effect1_backgroundBlur_107_302"/>
<feBlend mode="normal" in="SourceGraphic" in2="effect1_backgroundBlur_107_302" result="shape"/>
<feColorMatrix in="SourceAlpha" type="matrix" values="0 0 0 0 0 0 0 0 0 0 0 0 0 0 0 0 0 0 127 0" result="hardAlpha"/>
<feOffset dy="1"/>
<feGaussianBlur stdDeviation="0.5"/>
<feComposite in2="hardAlpha" operator="arithmetic" k2="-1" k3="1"/>
<feColorMatrix type="matrix" values="0 0 0 0 1 0 0 0 0 1 0 0 0 0 1 0 0 0 0.05 0"/>
<feBlend mode="normal" in2="shape" result="effect2_innerShadow_107_302"/>
<feColorMatrix in="SourceAlpha" type="matrix" values="0 0 0 0 0 0 0 0 0 0 0 0 0 0 0 0 0 0 127 0" result="hardAlpha"/>
<feOffset dy="4"/>
<feGaussianBlur stdDeviation="18"/>
<feComposite in2="hardAlpha" operator="arithmetic" k2="-1" k3="1"/>
<feColorMatrix type="matrix" values="0 0 0 0 1 0 0 0 0 1 0 0 0 0 1 0 0 0 0.36 0"/>
<feBlend mode="normal" in2="effect2_innerShadow_107_302" result="effect3_innerShadow_107_302"/>
</filter>
</defs>
</svg>
