<svg width="131" height="130" viewBox="0 0 131 130" fill="none" xmlns="http://www.w3.org/2000/svg">
<path d="M70.5673 89.4351L87.5897 73.2543L102.384 89.0311L102.379 89.0358C102.986 89.6638 103.641 90.3452 104.323 91.0559C110.128 97.111 110.147 97.1361 110.035 98.5914C109.938 99.8528 109.521 100.026 103.995 101.097C101.221 101.635 98.8762 102.149 98.783 102.239C98.6898 102.33 98.0965 104.665 97.4648 107.429C96.2057 112.937 96.0189 113.35 94.7601 113.403C94.4796 113.415 94.2574 113.429 94.0304 113.391C93.0567 113.229 91.9944 112.11 85.8611 105.748C82.0128 101.756 78.8588 98.444 78.8526 98.3879C78.852 98.383 78.8546 98.3776 78.86 98.3718L70.5673 89.4351Z" fill="#3680FF"/>
<path d="M70.5673 89.4351L87.5897 73.2543L102.384 89.0311L102.379 89.0358C102.986 89.6638 103.641 90.3452 104.323 91.0559C110.128 97.111 110.147 97.1361 110.035 98.5914C109.938 99.8528 109.521 100.026 103.995 101.097C101.221 101.635 98.8762 102.149 98.7831 102.239C98.6898 102.33 98.0965 104.665 97.4648 107.429C96.2057 112.937 96.019 113.35 94.7601 113.403C94.4796 113.415 94.2574 113.429 94.0304 113.391C93.0568 113.229 91.9944 112.11 85.8612 105.748C82.0128 101.756 78.8588 98.444 78.8526 98.3879C78.8521 98.383 78.8546 98.3776 78.86 98.3718L70.5673 89.4351Z" fill="#F8D15A"/>
<path d="M59.767 89.4351L42.7446 73.2543L27.95 89.0311L27.9549 89.0358C27.3485 89.6638 26.6929 90.3452 26.0115 91.0559C20.2066 97.111 20.1877 97.1361 20.2995 98.5914C20.3964 99.8528 20.8134 100.026 26.3398 101.097C29.1129 101.635 31.4581 102.149 31.5513 102.239C31.6446 102.33 32.2378 104.665 32.8696 107.429C34.1287 112.937 34.3154 113.35 35.5743 113.403C35.8547 113.415 36.0769 113.429 36.3039 113.391C37.2776 113.229 38.3399 112.11 44.4732 105.748C48.3216 101.756 51.4755 98.444 51.4817 98.3879C51.4823 98.383 51.4797 98.3776 51.4743 98.3718L59.767 89.4351Z" fill="#F8D15A"/>
<g filter="url(#filter0_biii_107_394)">
<path fill-rule="evenodd" clip-rule="evenodd" d="M75.36 46.3511C75.0725 46.5066 71.5743 49.8641 67.5858 53.8124L60.3345 60.9912L57.2623 57.9684C55.5729 56.3061 53.9334 54.8162 53.6195 54.6579C53.3054 54.4993 52.5289 54.3697 51.894 54.3697C48.9873 54.3697 46.8285 57.7966 48.1616 60.2952C48.6104 61.1365 57.8663 70.3046 58.6814 70.7152C59.4809 71.118 61.2699 71.0736 62.1094 70.6302C62.9601 70.1806 80.5406 52.6609 80.9517 51.8528C81.7907 50.2038 80.9901 47.8637 79.1701 46.644C78.2049 45.9972 76.2881 45.8498 75.36 46.3511ZM63.2096 16.2994C62.8857 16.4683 61.7187 17.3876 60.616 18.3425C59.5133 19.2972 58.5363 20.0787 58.4449 20.0787C58.3533 20.0789 57.0071 19.564 55.4531 18.9343C51.3462 17.2705 50.9039 17.4269 48.4634 21.4049C46.9025 23.9488 46.8612 23.995 46.2383 23.8856C45.8894 23.8243 44.4954 23.7127 43.1406 23.6375C39.2771 23.423 38.868 23.7658 37.8088 28.1075L37.0825 31.0851L34.2031 31.7583C31.1411 32.4742 30.4559 32.8326 29.8289 34.045C29.5045 34.6724 29.5263 36.5675 29.8953 39.8235L30.0133 40.863L27.4847 42.4015C23.5437 44.7997 23.338 45.4077 25.0585 49.5765C25.6207 50.9386 26.0806 52.1782 26.0806 52.3312C26.0806 52.4839 25.3114 53.5001 24.371 54.5893C21.2056 58.2556 21.2068 58.7215 24.3918 62.3906L26.2338 64.5124L25.135 67.1595C23.3284 71.5119 23.5165 72.1317 27.3496 74.4575C28.6718 75.2599 29.8023 75.9948 29.8616 76.0909C29.9209 76.1868 29.8616 77.5912 29.7299 79.212C29.5051 81.9761 29.5145 82.2073 29.8808 82.9455C30.0957 83.3783 30.5015 83.8981 30.7826 84.1007C31.0636 84.3033 32.5638 84.7821 34.1162 85.1648C35.6687 85.5475 36.9807 85.9022 37.0316 85.9533C37.0827 86.0044 37.4353 87.3127 37.8152 88.8609C38.5605 91.8987 38.8827 92.5145 40.0412 93.1157C40.7473 93.482 40.973 93.4912 43.7521 93.2658C45.3795 93.1337 46.787 93.0726 46.8798 93.1298C46.9727 93.1872 47.7196 94.3221 48.5398 95.6515C49.36 96.9811 50.2677 98.2447 50.5571 98.4595C51.6408 99.2644 52.7294 99.1454 55.7233 97.8949L58.451 96.7556L60.1683 98.2299C63.0734 100.724 63.3707 100.907 64.5136 100.907C65.657 100.907 65.9528 100.725 68.8668 98.2232L70.5922 96.7421L73.2702 97.8655C77.5275 99.6514 78.1079 99.4929 80.291 95.9497C81.0969 94.6416 81.8676 93.4475 82.0037 93.2958C82.2092 93.0675 82.7628 93.062 85.2429 93.2631C88.0559 93.4912 88.2791 93.4825 88.986 93.1157C90.1445 92.5145 90.4667 91.8987 91.2121 88.8609C91.5919 87.3127 91.9442 86.0046 91.9949 85.9541C92.0455 85.9034 93.3574 85.5503 94.9102 85.1695C96.4631 84.7886 97.9636 84.3094 98.2447 84.1048C98.5258 83.9 98.9316 83.3783 99.1465 82.9455C99.5132 82.2065 99.5222 81.9775 99.2955 79.1883C99.1017 76.8032 99.1052 76.1711 99.3137 75.9807C99.4566 75.8503 100.631 75.0935 101.924 74.2989C103.395 73.3951 104.409 72.6258 104.633 72.2441C105.257 71.1805 105.093 70.0533 103.896 67.1692L102.801 64.5316L104.642 62.3941C107.82 58.7035 107.82 58.2541 104.656 54.5893C103.716 53.5001 102.947 52.4839 102.947 52.3312C102.947 52.1782 103.407 50.9386 103.969 49.5765C105.687 45.4136 105.495 44.8316 101.609 42.4302L99.0181 40.8287L99.134 39.8063C99.8638 33.3624 99.6205 32.9076 94.8203 31.7427L91.9196 31.0391L91.2836 28.3455C90.5857 25.3892 90.2026 24.5805 89.2005 23.946C88.5876 23.5579 88.3296 23.534 85.9789 23.6479C84.5734 23.716 83.1379 23.8223 82.7889 23.8842C82.1658 23.995 82.1255 23.95 80.5639 21.4049C78.1849 17.5272 77.616 17.294 74.091 18.751C70.1882 20.3641 70.8242 20.4187 68.3021 18.2538C67.0987 17.2206 65.8858 16.2886 65.6071 16.1827C64.8665 15.901 63.8813 15.949 63.2096 16.2994Z" fill="#F2BE1D" fill-opacity="0.2"/>
</g>
<defs>
<filter id="filter0_biii_107_394" x="-14" y="-20" width="157.027" height="156.907" filterUnits="userSpaceOnUse" color-interpolation-filters="sRGB">
<feFlood flood-opacity="0" result="BackgroundImageFix"/>
<feGaussianBlur in="BackgroundImageFix" stdDeviation="18"/>
<feComposite in2="SourceAlpha" operator="in" result="effect1_backgroundBlur_107_394"/>
<feBlend mode="normal" in="SourceGraphic" in2="effect1_backgroundBlur_107_394" result="shape"/>
<feColorMatrix in="SourceAlpha" type="matrix" values="0 0 0 0 0 0 0 0 0 0 0 0 0 0 0 0 0 0 127 0" result="hardAlpha"/>
<feOffset dy="4"/>
<feGaussianBlur stdDeviation="18"/>
<feComposite in2="hardAlpha" operator="arithmetic" k2="-1" k3="1"/>
<feColorMatrix type="matrix" values="0 0 0 0 1 0 0 0 0 1 0 0 0 0 1 0 0 0 0.36 0"/>
<feBlend mode="normal" in2="shape" result="effect2_innerShadow_107_394"/>
<feColorMatrix in="SourceAlpha" type="matrix" values="0 0 0 0 0 0 0 0 0 0 0 0 0 0 0 0 0 0 127 0" result="hardAlpha"/>
<feOffset dy="4"/>
<feGaussianBlur stdDeviation="2"/>
<feComposite in2="hardAlpha" operator="arithmetic" k2="-1" k3="1"/>
<feColorMatrix type="matrix" values="0 0 0 0 1 0 0 0 0 1 0 0 0 0 1 0 0 0 0.15 0"/>
<feBlend mode="normal" in2="effect2_innerShadow_107_394" result="effect3_innerShadow_107_394"/>
<feColorMatrix in="SourceAlpha" type="matrix" values="0 0 0 0 0 0 0 0 0 0 0 0 0 0 0 0 0 0 127 0" result="hardAlpha"/>
<feOffset dy="1"/>
<feGaussianBlur stdDeviation="0.5"/>
<feComposite in2="hardAlpha" operator="arithmetic" k2="-1" k3="1"/>
<feColorMatrix type="matrix" values="0 0 0 0 1 0 0 0 0 1 0 0 0 0 1 0 0 0 0.05 0"/>
<feBlend mode="normal" in2="effect3_innerShadow_107_394" result="effect4_innerShadow_107_394"/>
</filter>
</defs>
</svg>
