<svg width="460" height="260" viewBox="0 0 460 260" fill="none" xmlns="http://www.w3.org/2000/svg">
<g filter="url(#filter0_bd_185_1424)">
<path fill-rule="evenodd" clip-rule="evenodd" d="M460 0H0V260H460V0ZM395.065 78.3494C398.51 79.8814 401.576 82.095 404.115 84.8157C406.661 87.524 408.638 90.6916 409.975 94.1159C411.318 97.559 412 101.222 412 104.902C412 108.582 411.318 112.246 409.975 115.689C408.635 119.121 406.652 122.295 404.097 125.008L404.07 125.036L315.467 219.616L315.439 219.645C312.898 222.373 309.827 224.591 306.376 226.126C302.91 227.668 299.156 228.476 295.34 228.476C291.524 228.476 287.77 227.668 284.304 226.126C280.848 224.589 277.773 222.366 275.229 219.634L275.213 219.616L231.988 173.368L176.098 233.14L176.08 233.16C173.537 235.892 170.463 238.114 167.007 239.651C163.541 241.192 159.787 242 155.971 242C152.155 242 148.401 241.192 144.935 239.651C141.491 238.119 138.425 235.906 135.887 233.186C133.34 230.477 131.362 227.309 130.025 223.884C128.682 220.441 128 216.778 128 213.098C128 209.418 128.682 205.754 130.025 202.311C131.365 198.878 133.349 195.703 135.905 192.99L135.93 192.964L211.863 111.908L211.889 111.881C214.431 109.153 217.502 106.933 220.954 105.398C224.42 103.857 228.174 103.049 231.99 103.049C235.807 103.049 239.56 103.857 243.027 105.398C246.482 106.935 249.557 109.158 252.101 111.891L252.117 111.908L295.344 158.158L363.902 84.8597L363.922 84.8385C366.464 82.1074 369.538 79.8857 372.993 78.3494C376.459 76.8079 380.213 76 384.029 76C387.845 76 391.599 76.8079 395.065 78.3494Z" fill="#F9E7E6" fill-opacity="0.18" shape-rendering="crispEdges"/>
</g>
<defs>
<filter id="filter0_bd_185_1424" x="-30" y="-30" width="520" height="326" filterUnits="userSpaceOnUse" color-interpolation-filters="sRGB">
<feFlood flood-opacity="0" result="BackgroundImageFix"/>
<feGaussianBlur in="BackgroundImageFix" stdDeviation="15"/>
<feComposite in2="SourceAlpha" operator="in" result="effect1_backgroundBlur_185_1424"/>
<feColorMatrix in="SourceAlpha" type="matrix" values="0 0 0 0 0 0 0 0 0 0 0 0 0 0 0 0 0 0 127 0" result="hardAlpha"/>
<feOffset dx="8" dy="16"/>
<feGaussianBlur stdDeviation="10"/>
<feComposite in2="hardAlpha" operator="out"/>
<feColorMatrix type="matrix" values="0 0 0 0 0.831373 0 0 0 0 0.364706 0 0 0 0 0.34902 0 0 0 0.15 0"/>
<feBlend mode="normal" in2="effect1_backgroundBlur_185_1424" result="effect2_dropShadow_185_1424"/>
<feBlend mode="normal" in="SourceGraphic" in2="effect2_dropShadow_185_1424" result="shape"/>
</filter>
</defs>
</svg>
