<svg width="23" height="19" viewBox="0 0 23 19" fill="none" xmlns="http://www.w3.org/2000/svg">
<path d="M19.4476 3.23275L19.7599 4.16016C20.0965 4.12046 20.4275 4.06364 20.752 3.99042C20.4396 4.29534 20.103 4.57665 19.7449 4.83149L19.5229 4.98949L19.5353 5.2617C19.5436 5.44242 19.5481 5.62417 19.5481 5.80333C19.5481 11.3526 15.2577 17.731 7.41858 17.731H7.41803C5.7793 17.7328 4.16502 17.406 2.67116 16.7787C4.42319 16.5974 6.09621 15.9341 7.49367 14.8545L8.61976 13.9846L7.19702 13.9589C6.3732 13.944 5.57553 13.676 4.91565 13.1934C4.47603 12.8719 4.1124 12.4661 3.84453 12.0041C4.29228 12.0071 4.7398 11.9504 5.17475 11.8346L5.14359 10.861C4.25021 10.6834 3.44842 10.2073 2.87338 9.5156C2.45885 9.01696 2.18041 8.42828 2.05734 7.8046C2.51498 7.95722 2.99433 8.04315 3.48019 8.05837L5.25105 8.11382L3.77044 7.14077C3.23103 6.78627 2.78971 6.30679 2.48495 5.74547C2.18022 5.1842 2.02123 4.55812 2.02161 3.92269V3.92239C2.02161 3.46889 2.1014 3.03321 2.24793 2.62769C3.31078 3.76805 4.57461 4.71217 5.97997 5.41332C7.6182 6.23065 9.41239 6.69969 11.2461 6.7903L11.9117 6.82318L11.7572 6.17494C11.5598 5.34695 11.6455 4.47789 12.0017 3.70224C12.3579 2.92645 12.9652 2.28644 13.7308 1.88302C14.4966 1.47953 15.3771 1.33584 16.2353 1.47498C17.0934 1.6141 17.8795 2.02794 18.4721 2.65058L18.6606 2.84867L18.9291 2.79681C19.4575 2.69473 19.975 2.54813 20.4761 2.35907C20.1898 2.70352 19.8428 3.00004 19.4476 3.23275Z" fill="white" stroke="white"/>
</svg>
